<mxfile host="app.diagrams.net" modified="2023-10-11T19:45:16.100Z" agent="Mozilla/5.0 (Windows NT 10.0; Win64; x64) AppleWebKit/537.36 (KHTML, like Gecko) Chrome/117.0.0.0 Safari/537.36" etag="6LXIlSdyOLN5g4uFBUzM" version="22.0.4" type="google">
  <diagram name="Page-1" id="z_SY3Q3caphczxv6Sb4Z">
    <mxGraphModel grid="1" page="1" gridSize="10" guides="1" tooltips="1" connect="1" arrows="1" fold="1" pageScale="1" pageWidth="850" pageHeight="1100" math="0" shadow="0">
      <root>
        <mxCell id="0" />
        <mxCell id="1" parent="0" />
        <mxCell id="BGtKNprCi80h-VZ0hmM6-5" style="edgeStyle=orthogonalEdgeStyle;rounded=0;orthogonalLoop=1;jettySize=auto;html=1;exitX=1;exitY=0.5;exitDx=0;exitDy=0;entryX=0;entryY=0;entryDx=0;entryDy=0;" edge="1" parent="1" source="BGtKNprCi80h-VZ0hmM6-1" target="BGtKNprCi80h-VZ0hmM6-4">
          <mxGeometry relative="1" as="geometry">
            <Array as="points">
              <mxPoint x="380" y="170" />
              <mxPoint x="380" y="232" />
            </Array>
          </mxGeometry>
        </mxCell>
        <mxCell id="BGtKNprCi80h-VZ0hmM6-1" value="&lt;font face=&quot;Times New Roman&quot;&gt;Keyboard&lt;/font&gt;" style="whiteSpace=wrap;html=1;aspect=fixed;" vertex="1" parent="1">
          <mxGeometry x="170" y="130" width="80" height="80" as="geometry" />
        </mxCell>
        <mxCell id="BGtKNprCi80h-VZ0hmM6-6" style="edgeStyle=orthogonalEdgeStyle;rounded=0;orthogonalLoop=1;jettySize=auto;html=1;exitX=1;exitY=0.5;exitDx=0;exitDy=0;entryX=0;entryY=1;entryDx=0;entryDy=0;" edge="1" parent="1" source="BGtKNprCi80h-VZ0hmM6-2" target="BGtKNprCi80h-VZ0hmM6-4">
          <mxGeometry relative="1" as="geometry">
            <mxPoint x="370" y="260" as="targetPoint" />
          </mxGeometry>
        </mxCell>
        <mxCell id="BGtKNprCi80h-VZ0hmM6-2" value="&lt;font face=&quot;Times New Roman&quot;&gt;Mouse/ Touchscreen&lt;/font&gt;" style="whiteSpace=wrap;html=1;aspect=fixed;" vertex="1" parent="1">
          <mxGeometry x="170" y="310" width="80" height="80" as="geometry" />
        </mxCell>
        <mxCell id="BGtKNprCi80h-VZ0hmM6-3" value="&lt;font face=&quot;Times New Roman&quot;&gt;Display&lt;/font&gt;" style="whiteSpace=wrap;html=1;aspect=fixed;" vertex="1" parent="1">
          <mxGeometry x="660" y="220" width="80" height="80" as="geometry" />
        </mxCell>
        <mxCell id="BGtKNprCi80h-VZ0hmM6-9" style="edgeStyle=orthogonalEdgeStyle;rounded=0;orthogonalLoop=1;jettySize=auto;html=1;exitX=1;exitY=0.5;exitDx=0;exitDy=0;" edge="1" parent="1" source="BGtKNprCi80h-VZ0hmM6-4" target="BGtKNprCi80h-VZ0hmM6-3">
          <mxGeometry relative="1" as="geometry" />
        </mxCell>
        <mxCell id="BGtKNprCi80h-VZ0hmM6-4" value="&lt;font face=&quot;Times New Roman&quot;&gt;Server&lt;/font&gt;" style="ellipse;whiteSpace=wrap;html=1;aspect=fixed;" vertex="1" parent="1">
          <mxGeometry x="370" y="220" width="80" height="80" as="geometry" />
        </mxCell>
        <mxCell id="BGtKNprCi80h-VZ0hmM6-8" value="&lt;font face=&quot;Times New Roman&quot;&gt;filtered tags,&lt;br&gt;map interactions (drag, zoom in/out)&lt;/font&gt;" style="text;html=1;strokeColor=none;fillColor=none;align=center;verticalAlign=middle;whiteSpace=wrap;rounded=0;" vertex="1" parent="1">
          <mxGeometry x="270" y="350" width="110" height="60" as="geometry" />
        </mxCell>
        <mxCell id="BGtKNprCi80h-VZ0hmM6-10" value="&lt;font face=&quot;Times New Roman&quot;&gt;content associated with applicable tags,&lt;br&gt;account information,&lt;br&gt;map&lt;/font&gt;" style="text;html=1;strokeColor=none;fillColor=none;align=center;verticalAlign=middle;whiteSpace=wrap;rounded=0;" vertex="1" parent="1">
          <mxGeometry x="460" y="280" width="170" height="80" as="geometry" />
        </mxCell>
        <mxCell id="BGtKNprCi80h-VZ0hmM6-12" value="&lt;font face=&quot;Times New Roman&quot;&gt;Login information, create content to upload,&amp;nbsp; keywords for search function&lt;/font&gt;" style="text;html=1;strokeColor=none;fillColor=none;align=center;verticalAlign=middle;whiteSpace=wrap;rounded=0;" vertex="1" parent="1">
          <mxGeometry x="260" y="120" width="150" height="30" as="geometry" />
        </mxCell>
      </root>
    </mxGraphModel>
  </diagram>
</mxfile>
